%TF.GenerationSoftware,KiCad,Pcbnew,9.0.2*%
%TF.CreationDate,2025-12-11T17:12:11+00:00*%
%TF.ProjectId,nanoshield,6e616e6f-7368-4696-956c-642e6b696361,rev?*%
%TF.SameCoordinates,Original*%
%TF.FileFunction,Legend,Top*%
%TF.FilePolarity,Positive*%
%FSLAX46Y46*%
G04 Gerber Fmt 4.6, Leading zero omitted, Abs format (unit mm)*
G04 Created by KiCad (PCBNEW 9.0.2) date 2025-12-11 17:12:11*
%MOMM*%
%LPD*%
G01*
G04 APERTURE LIST*
%ADD10C,0.100000*%
%ADD11C,0.150000*%
%ADD12C,0.304800*%
%ADD13C,0.120000*%
%ADD14C,2.499360*%
G04 APERTURE END LIST*
D10*
X151153884Y-61462475D02*
X151153884Y-60462475D01*
X151153884Y-60462475D02*
X151487217Y-61176760D01*
X151487217Y-61176760D02*
X151820550Y-60462475D01*
X151820550Y-60462475D02*
X151820550Y-61462475D01*
X152487217Y-60462475D02*
X152582455Y-60462475D01*
X152582455Y-60462475D02*
X152677693Y-60510094D01*
X152677693Y-60510094D02*
X152725312Y-60557713D01*
X152725312Y-60557713D02*
X152772931Y-60652951D01*
X152772931Y-60652951D02*
X152820550Y-60843427D01*
X152820550Y-60843427D02*
X152820550Y-61081522D01*
X152820550Y-61081522D02*
X152772931Y-61271998D01*
X152772931Y-61271998D02*
X152725312Y-61367236D01*
X152725312Y-61367236D02*
X152677693Y-61414856D01*
X152677693Y-61414856D02*
X152582455Y-61462475D01*
X152582455Y-61462475D02*
X152487217Y-61462475D01*
X152487217Y-61462475D02*
X152391979Y-61414856D01*
X152391979Y-61414856D02*
X152344360Y-61367236D01*
X152344360Y-61367236D02*
X152296741Y-61271998D01*
X152296741Y-61271998D02*
X152249122Y-61081522D01*
X152249122Y-61081522D02*
X152249122Y-60843427D01*
X152249122Y-60843427D02*
X152296741Y-60652951D01*
X152296741Y-60652951D02*
X152344360Y-60557713D01*
X152344360Y-60557713D02*
X152391979Y-60510094D01*
X152391979Y-60510094D02*
X152487217Y-60462475D01*
X153201503Y-61414856D02*
X153344360Y-61462475D01*
X153344360Y-61462475D02*
X153582455Y-61462475D01*
X153582455Y-61462475D02*
X153677693Y-61414856D01*
X153677693Y-61414856D02*
X153725312Y-61367236D01*
X153725312Y-61367236D02*
X153772931Y-61271998D01*
X153772931Y-61271998D02*
X153772931Y-61176760D01*
X153772931Y-61176760D02*
X153725312Y-61081522D01*
X153725312Y-61081522D02*
X153677693Y-61033903D01*
X153677693Y-61033903D02*
X153582455Y-60986284D01*
X153582455Y-60986284D02*
X153391979Y-60938665D01*
X153391979Y-60938665D02*
X153296741Y-60891046D01*
X153296741Y-60891046D02*
X153249122Y-60843427D01*
X153249122Y-60843427D02*
X153201503Y-60748189D01*
X153201503Y-60748189D02*
X153201503Y-60652951D01*
X153201503Y-60652951D02*
X153249122Y-60557713D01*
X153249122Y-60557713D02*
X153296741Y-60510094D01*
X153296741Y-60510094D02*
X153391979Y-60462475D01*
X153391979Y-60462475D02*
X153630074Y-60462475D01*
X153630074Y-60462475D02*
X153772931Y-60510094D01*
X154963408Y-61462475D02*
X154963408Y-60462475D01*
X154963408Y-60462475D02*
X155201503Y-60462475D01*
X155201503Y-60462475D02*
X155344360Y-60510094D01*
X155344360Y-60510094D02*
X155439598Y-60605332D01*
X155439598Y-60605332D02*
X155487217Y-60700570D01*
X155487217Y-60700570D02*
X155534836Y-60891046D01*
X155534836Y-60891046D02*
X155534836Y-61033903D01*
X155534836Y-61033903D02*
X155487217Y-61224379D01*
X155487217Y-61224379D02*
X155439598Y-61319617D01*
X155439598Y-61319617D02*
X155344360Y-61414856D01*
X155344360Y-61414856D02*
X155201503Y-61462475D01*
X155201503Y-61462475D02*
X154963408Y-61462475D01*
X156153884Y-60462475D02*
X156344360Y-60462475D01*
X156344360Y-60462475D02*
X156439598Y-60510094D01*
X156439598Y-60510094D02*
X156534836Y-60605332D01*
X156534836Y-60605332D02*
X156582455Y-60795808D01*
X156582455Y-60795808D02*
X156582455Y-61129141D01*
X156582455Y-61129141D02*
X156534836Y-61319617D01*
X156534836Y-61319617D02*
X156439598Y-61414856D01*
X156439598Y-61414856D02*
X156344360Y-61462475D01*
X156344360Y-61462475D02*
X156153884Y-61462475D01*
X156153884Y-61462475D02*
X156058646Y-61414856D01*
X156058646Y-61414856D02*
X155963408Y-61319617D01*
X155963408Y-61319617D02*
X155915789Y-61129141D01*
X155915789Y-61129141D02*
X155915789Y-60795808D01*
X155915789Y-60795808D02*
X155963408Y-60605332D01*
X155963408Y-60605332D02*
X156058646Y-60510094D01*
X156058646Y-60510094D02*
X156153884Y-60462475D01*
X157582455Y-61367236D02*
X157534836Y-61414856D01*
X157534836Y-61414856D02*
X157391979Y-61462475D01*
X157391979Y-61462475D02*
X157296741Y-61462475D01*
X157296741Y-61462475D02*
X157153884Y-61414856D01*
X157153884Y-61414856D02*
X157058646Y-61319617D01*
X157058646Y-61319617D02*
X157011027Y-61224379D01*
X157011027Y-61224379D02*
X156963408Y-61033903D01*
X156963408Y-61033903D02*
X156963408Y-60891046D01*
X156963408Y-60891046D02*
X157011027Y-60700570D01*
X157011027Y-60700570D02*
X157058646Y-60605332D01*
X157058646Y-60605332D02*
X157153884Y-60510094D01*
X157153884Y-60510094D02*
X157296741Y-60462475D01*
X157296741Y-60462475D02*
X157391979Y-60462475D01*
X157391979Y-60462475D02*
X157534836Y-60510094D01*
X157534836Y-60510094D02*
X157582455Y-60557713D01*
X158011027Y-61462475D02*
X158011027Y-60462475D01*
X158582455Y-61462475D02*
X158153884Y-60891046D01*
X158582455Y-60462475D02*
X158011027Y-61033903D01*
X151011027Y-62405752D02*
X151391979Y-62405752D01*
X151153884Y-62072419D02*
X151153884Y-62929561D01*
X151153884Y-62929561D02*
X151201503Y-63024800D01*
X151201503Y-63024800D02*
X151296741Y-63072419D01*
X151296741Y-63072419D02*
X151391979Y-63072419D01*
X151725313Y-63072419D02*
X151725313Y-62072419D01*
X152153884Y-63072419D02*
X152153884Y-62548609D01*
X152153884Y-62548609D02*
X152106265Y-62453371D01*
X152106265Y-62453371D02*
X152011027Y-62405752D01*
X152011027Y-62405752D02*
X151868170Y-62405752D01*
X151868170Y-62405752D02*
X151772932Y-62453371D01*
X151772932Y-62453371D02*
X151725313Y-62500990D01*
X152630075Y-63072419D02*
X152630075Y-62405752D01*
X152630075Y-62072419D02*
X152582456Y-62120038D01*
X152582456Y-62120038D02*
X152630075Y-62167657D01*
X152630075Y-62167657D02*
X152677694Y-62120038D01*
X152677694Y-62120038D02*
X152630075Y-62072419D01*
X152630075Y-62072419D02*
X152630075Y-62167657D01*
X153058646Y-63024800D02*
X153153884Y-63072419D01*
X153153884Y-63072419D02*
X153344360Y-63072419D01*
X153344360Y-63072419D02*
X153439598Y-63024800D01*
X153439598Y-63024800D02*
X153487217Y-62929561D01*
X153487217Y-62929561D02*
X153487217Y-62881942D01*
X153487217Y-62881942D02*
X153439598Y-62786704D01*
X153439598Y-62786704D02*
X153344360Y-62739085D01*
X153344360Y-62739085D02*
X153201503Y-62739085D01*
X153201503Y-62739085D02*
X153106265Y-62691466D01*
X153106265Y-62691466D02*
X153058646Y-62596228D01*
X153058646Y-62596228D02*
X153058646Y-62548609D01*
X153058646Y-62548609D02*
X153106265Y-62453371D01*
X153106265Y-62453371D02*
X153201503Y-62405752D01*
X153201503Y-62405752D02*
X153344360Y-62405752D01*
X153344360Y-62405752D02*
X153439598Y-62453371D01*
X154582456Y-62405752D02*
X154772932Y-63072419D01*
X154772932Y-63072419D02*
X154963408Y-62596228D01*
X154963408Y-62596228D02*
X155153884Y-63072419D01*
X155153884Y-63072419D02*
X155344360Y-62405752D01*
X156153884Y-63072419D02*
X156153884Y-62548609D01*
X156153884Y-62548609D02*
X156106265Y-62453371D01*
X156106265Y-62453371D02*
X156011027Y-62405752D01*
X156011027Y-62405752D02*
X155820551Y-62405752D01*
X155820551Y-62405752D02*
X155725313Y-62453371D01*
X156153884Y-63024800D02*
X156058646Y-63072419D01*
X156058646Y-63072419D02*
X155820551Y-63072419D01*
X155820551Y-63072419D02*
X155725313Y-63024800D01*
X155725313Y-63024800D02*
X155677694Y-62929561D01*
X155677694Y-62929561D02*
X155677694Y-62834323D01*
X155677694Y-62834323D02*
X155725313Y-62739085D01*
X155725313Y-62739085D02*
X155820551Y-62691466D01*
X155820551Y-62691466D02*
X156058646Y-62691466D01*
X156058646Y-62691466D02*
X156153884Y-62643847D01*
X156534837Y-62405752D02*
X156772932Y-63072419D01*
X157011027Y-62405752D02*
X156772932Y-63072419D01*
X156772932Y-63072419D02*
X156677694Y-63310514D01*
X156677694Y-63310514D02*
X156630075Y-63358133D01*
X156630075Y-63358133D02*
X156534837Y-63405752D01*
X158153885Y-62072419D02*
X158153885Y-62881942D01*
X158153885Y-62881942D02*
X158201504Y-62977180D01*
X158201504Y-62977180D02*
X158249123Y-63024800D01*
X158249123Y-63024800D02*
X158344361Y-63072419D01*
X158344361Y-63072419D02*
X158534837Y-63072419D01*
X158534837Y-63072419D02*
X158630075Y-63024800D01*
X158630075Y-63024800D02*
X158677694Y-62977180D01*
X158677694Y-62977180D02*
X158725313Y-62881942D01*
X158725313Y-62881942D02*
X158725313Y-62072419D01*
X159201504Y-63072419D02*
X159201504Y-62072419D01*
X159201504Y-62072419D02*
X159582456Y-62072419D01*
X159582456Y-62072419D02*
X159677694Y-62120038D01*
X159677694Y-62120038D02*
X159725313Y-62167657D01*
X159725313Y-62167657D02*
X159772932Y-62262895D01*
X159772932Y-62262895D02*
X159772932Y-62405752D01*
X159772932Y-62405752D02*
X159725313Y-62500990D01*
X159725313Y-62500990D02*
X159677694Y-62548609D01*
X159677694Y-62548609D02*
X159582456Y-62596228D01*
X159582456Y-62596228D02*
X159201504Y-62596228D01*
D11*
X127286779Y-33319819D02*
X127286779Y-32319819D01*
X127286779Y-32796009D02*
X127858207Y-32796009D01*
X127858207Y-33319819D02*
X127858207Y-32319819D01*
X128334398Y-33319819D02*
X128334398Y-32319819D01*
X128334398Y-32319819D02*
X128572493Y-32319819D01*
X128572493Y-32319819D02*
X128715350Y-32367438D01*
X128715350Y-32367438D02*
X128810588Y-32462676D01*
X128810588Y-32462676D02*
X128858207Y-32557914D01*
X128858207Y-32557914D02*
X128905826Y-32748390D01*
X128905826Y-32748390D02*
X128905826Y-32891247D01*
X128905826Y-32891247D02*
X128858207Y-33081723D01*
X128858207Y-33081723D02*
X128810588Y-33176961D01*
X128810588Y-33176961D02*
X128715350Y-33272200D01*
X128715350Y-33272200D02*
X128572493Y-33319819D01*
X128572493Y-33319819D02*
X128334398Y-33319819D01*
X129334398Y-33319819D02*
X129334398Y-32319819D01*
X129334398Y-32319819D02*
X129667731Y-33034104D01*
X129667731Y-33034104D02*
X130001064Y-32319819D01*
X130001064Y-32319819D02*
X130001064Y-33319819D01*
X130477255Y-33319819D02*
X130477255Y-32319819D01*
X131572493Y-32653152D02*
X131953445Y-32653152D01*
X131715350Y-32319819D02*
X131715350Y-33176961D01*
X131715350Y-33176961D02*
X131762969Y-33272200D01*
X131762969Y-33272200D02*
X131858207Y-33319819D01*
X131858207Y-33319819D02*
X131953445Y-33319819D01*
X132286779Y-33319819D02*
X132286779Y-32319819D01*
X132715350Y-33319819D02*
X132715350Y-32796009D01*
X132715350Y-32796009D02*
X132667731Y-32700771D01*
X132667731Y-32700771D02*
X132572493Y-32653152D01*
X132572493Y-32653152D02*
X132429636Y-32653152D01*
X132429636Y-32653152D02*
X132334398Y-32700771D01*
X132334398Y-32700771D02*
X132286779Y-32748390D01*
X133191541Y-33319819D02*
X133191541Y-32653152D01*
X133191541Y-32319819D02*
X133143922Y-32367438D01*
X133143922Y-32367438D02*
X133191541Y-32415057D01*
X133191541Y-32415057D02*
X133239160Y-32367438D01*
X133239160Y-32367438D02*
X133191541Y-32319819D01*
X133191541Y-32319819D02*
X133191541Y-32415057D01*
X133620112Y-33272200D02*
X133715350Y-33319819D01*
X133715350Y-33319819D02*
X133905826Y-33319819D01*
X133905826Y-33319819D02*
X134001064Y-33272200D01*
X134001064Y-33272200D02*
X134048683Y-33176961D01*
X134048683Y-33176961D02*
X134048683Y-33129342D01*
X134048683Y-33129342D02*
X134001064Y-33034104D01*
X134001064Y-33034104D02*
X133905826Y-32986485D01*
X133905826Y-32986485D02*
X133762969Y-32986485D01*
X133762969Y-32986485D02*
X133667731Y-32938866D01*
X133667731Y-32938866D02*
X133620112Y-32843628D01*
X133620112Y-32843628D02*
X133620112Y-32796009D01*
X133620112Y-32796009D02*
X133667731Y-32700771D01*
X133667731Y-32700771D02*
X133762969Y-32653152D01*
X133762969Y-32653152D02*
X133905826Y-32653152D01*
X133905826Y-32653152D02*
X134001064Y-32700771D01*
X135143922Y-32653152D02*
X135334398Y-33319819D01*
X135334398Y-33319819D02*
X135524874Y-32843628D01*
X135524874Y-32843628D02*
X135715350Y-33319819D01*
X135715350Y-33319819D02*
X135905826Y-32653152D01*
X136715350Y-33319819D02*
X136715350Y-32796009D01*
X136715350Y-32796009D02*
X136667731Y-32700771D01*
X136667731Y-32700771D02*
X136572493Y-32653152D01*
X136572493Y-32653152D02*
X136382017Y-32653152D01*
X136382017Y-32653152D02*
X136286779Y-32700771D01*
X136715350Y-33272200D02*
X136620112Y-33319819D01*
X136620112Y-33319819D02*
X136382017Y-33319819D01*
X136382017Y-33319819D02*
X136286779Y-33272200D01*
X136286779Y-33272200D02*
X136239160Y-33176961D01*
X136239160Y-33176961D02*
X136239160Y-33081723D01*
X136239160Y-33081723D02*
X136286779Y-32986485D01*
X136286779Y-32986485D02*
X136382017Y-32938866D01*
X136382017Y-32938866D02*
X136620112Y-32938866D01*
X136620112Y-32938866D02*
X136715350Y-32891247D01*
X137096303Y-32653152D02*
X137334398Y-33319819D01*
X137572493Y-32653152D02*
X137334398Y-33319819D01*
X137334398Y-33319819D02*
X137239160Y-33557914D01*
X137239160Y-33557914D02*
X137191541Y-33605533D01*
X137191541Y-33605533D02*
X137096303Y-33653152D01*
X105574819Y-47583333D02*
X106289104Y-47583333D01*
X106289104Y-47583333D02*
X106431961Y-47630952D01*
X106431961Y-47630952D02*
X106527200Y-47726190D01*
X106527200Y-47726190D02*
X106574819Y-47869047D01*
X106574819Y-47869047D02*
X106574819Y-47964285D01*
X105670057Y-47154761D02*
X105622438Y-47107142D01*
X105622438Y-47107142D02*
X105574819Y-47011904D01*
X105574819Y-47011904D02*
X105574819Y-46773809D01*
X105574819Y-46773809D02*
X105622438Y-46678571D01*
X105622438Y-46678571D02*
X105670057Y-46630952D01*
X105670057Y-46630952D02*
X105765295Y-46583333D01*
X105765295Y-46583333D02*
X105860533Y-46583333D01*
X105860533Y-46583333D02*
X106003390Y-46630952D01*
X106003390Y-46630952D02*
X106574819Y-47202380D01*
X106574819Y-47202380D02*
X106574819Y-46583333D01*
X115783333Y-82859580D02*
X115735714Y-82907200D01*
X115735714Y-82907200D02*
X115592857Y-82954819D01*
X115592857Y-82954819D02*
X115497619Y-82954819D01*
X115497619Y-82954819D02*
X115354762Y-82907200D01*
X115354762Y-82907200D02*
X115259524Y-82811961D01*
X115259524Y-82811961D02*
X115211905Y-82716723D01*
X115211905Y-82716723D02*
X115164286Y-82526247D01*
X115164286Y-82526247D02*
X115164286Y-82383390D01*
X115164286Y-82383390D02*
X115211905Y-82192914D01*
X115211905Y-82192914D02*
X115259524Y-82097676D01*
X115259524Y-82097676D02*
X115354762Y-82002438D01*
X115354762Y-82002438D02*
X115497619Y-81954819D01*
X115497619Y-81954819D02*
X115592857Y-81954819D01*
X115592857Y-81954819D02*
X115735714Y-82002438D01*
X115735714Y-82002438D02*
X115783333Y-82050057D01*
X116735714Y-82954819D02*
X116164286Y-82954819D01*
X116450000Y-82954819D02*
X116450000Y-81954819D01*
X116450000Y-81954819D02*
X116354762Y-82097676D01*
X116354762Y-82097676D02*
X116259524Y-82192914D01*
X116259524Y-82192914D02*
X116164286Y-82240533D01*
X120174819Y-71716666D02*
X119698628Y-72049999D01*
X120174819Y-72288094D02*
X119174819Y-72288094D01*
X119174819Y-72288094D02*
X119174819Y-71907142D01*
X119174819Y-71907142D02*
X119222438Y-71811904D01*
X119222438Y-71811904D02*
X119270057Y-71764285D01*
X119270057Y-71764285D02*
X119365295Y-71716666D01*
X119365295Y-71716666D02*
X119508152Y-71716666D01*
X119508152Y-71716666D02*
X119603390Y-71764285D01*
X119603390Y-71764285D02*
X119651009Y-71811904D01*
X119651009Y-71811904D02*
X119698628Y-71907142D01*
X119698628Y-71907142D02*
X119698628Y-72288094D01*
X120174819Y-70764285D02*
X120174819Y-71335713D01*
X120174819Y-71049999D02*
X119174819Y-71049999D01*
X119174819Y-71049999D02*
X119317676Y-71145237D01*
X119317676Y-71145237D02*
X119412914Y-71240475D01*
X119412914Y-71240475D02*
X119460533Y-71335713D01*
D12*
X88412141Y-74956700D02*
X89500712Y-74956700D01*
X89500712Y-74956700D02*
X89718427Y-75029271D01*
X89718427Y-75029271D02*
X89863570Y-75174414D01*
X89863570Y-75174414D02*
X89936141Y-75392128D01*
X89936141Y-75392128D02*
X89936141Y-75537271D01*
X88412141Y-73505271D02*
X88412141Y-74230985D01*
X88412141Y-74230985D02*
X89137855Y-74303557D01*
X89137855Y-74303557D02*
X89065284Y-74230985D01*
X89065284Y-74230985D02*
X88992712Y-74085843D01*
X88992712Y-74085843D02*
X88992712Y-73722985D01*
X88992712Y-73722985D02*
X89065284Y-73577843D01*
X89065284Y-73577843D02*
X89137855Y-73505271D01*
X89137855Y-73505271D02*
X89282998Y-73432700D01*
X89282998Y-73432700D02*
X89645855Y-73432700D01*
X89645855Y-73432700D02*
X89790998Y-73505271D01*
X89790998Y-73505271D02*
X89863570Y-73577843D01*
X89863570Y-73577843D02*
X89936141Y-73722985D01*
X89936141Y-73722985D02*
X89936141Y-74085843D01*
X89936141Y-74085843D02*
X89863570Y-74230985D01*
X89863570Y-74230985D02*
X89790998Y-74303557D01*
X111937621Y-79202127D02*
X110413621Y-79202127D01*
X110413621Y-79202127D02*
X111502192Y-78694127D01*
X111502192Y-78694127D02*
X110413621Y-78186127D01*
X110413621Y-78186127D02*
X111937621Y-78186127D01*
X111937621Y-77460413D02*
X110413621Y-77460413D01*
X111937621Y-76734699D02*
X110413621Y-76734699D01*
X110413621Y-76734699D02*
X110413621Y-76371842D01*
X110413621Y-76371842D02*
X110486192Y-76154128D01*
X110486192Y-76154128D02*
X110631335Y-76008985D01*
X110631335Y-76008985D02*
X110776478Y-75936414D01*
X110776478Y-75936414D02*
X111066764Y-75863842D01*
X111066764Y-75863842D02*
X111284478Y-75863842D01*
X111284478Y-75863842D02*
X111574764Y-75936414D01*
X111574764Y-75936414D02*
X111719907Y-76008985D01*
X111719907Y-76008985D02*
X111865050Y-76154128D01*
X111865050Y-76154128D02*
X111937621Y-76371842D01*
X111937621Y-76371842D02*
X111937621Y-76734699D01*
X111937621Y-75210699D02*
X110413621Y-75210699D01*
X110413621Y-73033557D02*
X110413621Y-72743271D01*
X110413621Y-72743271D02*
X110486192Y-72598128D01*
X110486192Y-72598128D02*
X110631335Y-72452985D01*
X110631335Y-72452985D02*
X110921621Y-72380414D01*
X110921621Y-72380414D02*
X111429621Y-72380414D01*
X111429621Y-72380414D02*
X111719907Y-72452985D01*
X111719907Y-72452985D02*
X111865050Y-72598128D01*
X111865050Y-72598128D02*
X111937621Y-72743271D01*
X111937621Y-72743271D02*
X111937621Y-73033557D01*
X111937621Y-73033557D02*
X111865050Y-73178700D01*
X111865050Y-73178700D02*
X111719907Y-73323842D01*
X111719907Y-73323842D02*
X111429621Y-73396414D01*
X111429621Y-73396414D02*
X110921621Y-73396414D01*
X110921621Y-73396414D02*
X110631335Y-73323842D01*
X110631335Y-73323842D02*
X110486192Y-73178700D01*
X110486192Y-73178700D02*
X110413621Y-73033557D01*
X110413621Y-71727271D02*
X111647335Y-71727271D01*
X111647335Y-71727271D02*
X111792478Y-71654700D01*
X111792478Y-71654700D02*
X111865050Y-71582129D01*
X111865050Y-71582129D02*
X111937621Y-71436986D01*
X111937621Y-71436986D02*
X111937621Y-71146700D01*
X111937621Y-71146700D02*
X111865050Y-71001557D01*
X111865050Y-71001557D02*
X111792478Y-70928986D01*
X111792478Y-70928986D02*
X111647335Y-70856414D01*
X111647335Y-70856414D02*
X110413621Y-70856414D01*
X110413621Y-70348415D02*
X110413621Y-69477558D01*
X111937621Y-69912986D02*
X110413621Y-69912986D01*
D11*
X115733333Y-62554819D02*
X115400000Y-62078628D01*
X115161905Y-62554819D02*
X115161905Y-61554819D01*
X115161905Y-61554819D02*
X115542857Y-61554819D01*
X115542857Y-61554819D02*
X115638095Y-61602438D01*
X115638095Y-61602438D02*
X115685714Y-61650057D01*
X115685714Y-61650057D02*
X115733333Y-61745295D01*
X115733333Y-61745295D02*
X115733333Y-61888152D01*
X115733333Y-61888152D02*
X115685714Y-61983390D01*
X115685714Y-61983390D02*
X115638095Y-62031009D01*
X115638095Y-62031009D02*
X115542857Y-62078628D01*
X115542857Y-62078628D02*
X115161905Y-62078628D01*
X116114286Y-61650057D02*
X116161905Y-61602438D01*
X116161905Y-61602438D02*
X116257143Y-61554819D01*
X116257143Y-61554819D02*
X116495238Y-61554819D01*
X116495238Y-61554819D02*
X116590476Y-61602438D01*
X116590476Y-61602438D02*
X116638095Y-61650057D01*
X116638095Y-61650057D02*
X116685714Y-61745295D01*
X116685714Y-61745295D02*
X116685714Y-61840533D01*
X116685714Y-61840533D02*
X116638095Y-61983390D01*
X116638095Y-61983390D02*
X116066667Y-62554819D01*
X116066667Y-62554819D02*
X116685714Y-62554819D01*
X142084819Y-42983333D02*
X142799104Y-42983333D01*
X142799104Y-42983333D02*
X142941961Y-43030952D01*
X142941961Y-43030952D02*
X143037200Y-43126190D01*
X143037200Y-43126190D02*
X143084819Y-43269047D01*
X143084819Y-43269047D02*
X143084819Y-43364285D01*
X142418152Y-42078571D02*
X143084819Y-42078571D01*
X142037200Y-42316666D02*
X142751485Y-42554761D01*
X142751485Y-42554761D02*
X142751485Y-41935714D01*
D13*
%TO.C,J3*%
X121220000Y-79970000D02*
X121220000Y-31650000D01*
X121220000Y-82570000D02*
X121220000Y-81240000D01*
X122550000Y-82570000D02*
X121220000Y-82570000D01*
X123880000Y-31650000D02*
X121220000Y-31650000D01*
X123880000Y-79970000D02*
X121220000Y-79970000D01*
X123880000Y-79970000D02*
X123880000Y-31650000D01*
%TO.C,J1*%
X141520000Y-79930000D02*
X141520000Y-31610000D01*
X141520000Y-82530000D02*
X141520000Y-81200000D01*
X142850000Y-82530000D02*
X141520000Y-82530000D01*
X144180000Y-31610000D02*
X141520000Y-31610000D01*
X144180000Y-79930000D02*
X141520000Y-79930000D01*
X144180000Y-79930000D02*
X144180000Y-31610000D01*
%TO.C,J2*%
X92840000Y-31765000D02*
X105180000Y-31765000D01*
X105180000Y-31765000D02*
X105180000Y-62735000D01*
X105180000Y-62735000D02*
X92840000Y-62735000D01*
X105641325Y-41710000D02*
X106074338Y-41460000D01*
X106074338Y-41460000D02*
X106074338Y-41960000D01*
X106074338Y-41960000D02*
X105641325Y-41710000D01*
%TO.C,C1*%
X113280000Y-81895000D02*
X113280000Y-81580000D01*
X113280000Y-84320000D02*
X113280000Y-84005000D01*
X118520000Y-81580000D02*
X113280000Y-81580000D01*
X118520000Y-81895000D02*
X118520000Y-81580000D01*
X118520000Y-84320000D02*
X113280000Y-84320000D01*
X118520000Y-84320000D02*
X118520000Y-84005000D01*
%TO.C,R1*%
X115980000Y-68280000D02*
X115980000Y-74820000D01*
X115980000Y-74820000D02*
X118720000Y-74820000D01*
X117350000Y-67510000D02*
X117350000Y-68280000D01*
X117350000Y-75590000D02*
X117350000Y-74820000D01*
X118720000Y-68280000D02*
X115980000Y-68280000D01*
X118720000Y-74820000D02*
X118720000Y-68280000D01*
D12*
%TO.C,J5*%
X90748100Y-63948340D02*
X91248480Y-63948340D01*
X90748100Y-83447920D02*
X90748100Y-63948340D01*
X90997020Y-63948340D02*
X90997020Y-83447920D01*
X91248480Y-63948340D02*
X91248480Y-65449480D01*
X91248480Y-65449480D02*
X91748860Y-65449480D01*
X91248480Y-83447920D02*
X90748100Y-83447920D01*
X91248480Y-83447920D02*
X91248480Y-65449480D01*
X91248480Y-84949060D02*
X91248480Y-83447920D01*
X91497400Y-65449480D02*
X91497400Y-84949060D01*
X91748860Y-65449480D02*
X91748860Y-84949060D01*
X91748860Y-82947540D02*
X92246700Y-82947540D01*
X91748860Y-84949060D02*
X91248480Y-84949060D01*
X92246700Y-65449480D02*
X92246700Y-65949860D01*
X92246700Y-65949860D02*
X91748860Y-65949860D01*
X92246700Y-83447920D02*
X92246700Y-82947540D01*
X107247940Y-68949600D02*
X107247940Y-72449720D01*
X107247940Y-79947800D02*
X107247940Y-76447680D01*
X109246920Y-65449480D02*
X92246700Y-65449480D01*
X109246920Y-65449480D02*
X109747300Y-65949860D01*
X109246920Y-68949600D02*
X107247940Y-68949600D01*
X109246920Y-72449720D02*
X107247940Y-72449720D01*
X109246920Y-76447680D02*
X107247940Y-76447680D01*
X109246920Y-79947800D02*
X107247940Y-79947800D01*
X109246920Y-83447920D02*
X92246700Y-83447920D01*
X109246920Y-83447920D02*
X109747300Y-82947540D01*
X109747300Y-65949860D02*
X109747300Y-68449220D01*
X109747300Y-68449220D02*
X109246920Y-68949600D01*
X109747300Y-72947560D02*
X109246920Y-72449720D01*
X109747300Y-72947560D02*
X109747300Y-75949840D01*
X109747300Y-75949840D02*
X109246920Y-76447680D01*
X109747300Y-80448180D02*
X109246920Y-79947800D01*
X109747300Y-80948560D02*
X109747300Y-80448180D01*
X109747300Y-82947540D02*
X109747300Y-80948560D01*
D13*
%TO.C,R2*%
X114330000Y-51530000D02*
X114330000Y-58070000D01*
X114330000Y-58070000D02*
X117070000Y-58070000D01*
X115700000Y-50760000D02*
X115700000Y-51530000D01*
X115700000Y-58840000D02*
X115700000Y-58070000D01*
X117070000Y-51530000D02*
X114330000Y-51530000D01*
X117070000Y-58070000D02*
X117070000Y-51530000D01*
%TO.C,J4*%
X148250000Y-36050000D02*
X149580000Y-36050000D01*
X148250000Y-37160000D02*
X148250000Y-36050000D01*
X148250000Y-41160000D02*
X163610000Y-41160000D01*
X148250000Y-49790000D02*
X148250000Y-41160000D01*
X148250000Y-49790000D02*
X163610000Y-49790000D01*
X148370000Y-49790000D02*
X148370000Y-41160000D01*
X148488095Y-49790000D02*
X148488095Y-41160000D01*
X148606190Y-49790000D02*
X148606190Y-41160000D01*
X148724285Y-49790000D02*
X148724285Y-41160000D01*
X148842380Y-49790000D02*
X148842380Y-41160000D01*
X148960475Y-49790000D02*
X148960475Y-41160000D01*
X149078570Y-49790000D02*
X149078570Y-41160000D01*
X149196665Y-49790000D02*
X149196665Y-41160000D01*
X149220000Y-38650000D02*
X149220000Y-38270000D01*
X149220000Y-41160000D02*
X149220000Y-40750000D01*
X149314760Y-49790000D02*
X149314760Y-41160000D01*
X149432855Y-49790000D02*
X149432855Y-41160000D01*
X149550950Y-49790000D02*
X149550950Y-41160000D01*
X149669045Y-49790000D02*
X149669045Y-41160000D01*
X149787140Y-49790000D02*
X149787140Y-41160000D01*
X149905235Y-49790000D02*
X149905235Y-41160000D01*
X149940000Y-38650000D02*
X149940000Y-38270000D01*
X149940000Y-41160000D02*
X149940000Y-40750000D01*
X150023330Y-49790000D02*
X150023330Y-41160000D01*
X150141425Y-49790000D02*
X150141425Y-41160000D01*
X150259520Y-49790000D02*
X150259520Y-41160000D01*
X150377615Y-49790000D02*
X150377615Y-41160000D01*
X150495710Y-49790000D02*
X150495710Y-41160000D01*
X150613805Y-49790000D02*
X150613805Y-41160000D01*
X150731900Y-49790000D02*
X150731900Y-41160000D01*
X150850000Y-49790000D02*
X150850000Y-41160000D01*
X151760000Y-38650000D02*
X151760000Y-38210000D01*
X151760000Y-41160000D02*
X151760000Y-40750000D01*
X152480000Y-38650000D02*
X152480000Y-38210000D01*
X152480000Y-41160000D02*
X152480000Y-40750000D01*
X153390000Y-49790000D02*
X153390000Y-41160000D01*
X154300000Y-38650000D02*
X154300000Y-38210000D01*
X154300000Y-41160000D02*
X154300000Y-40750000D01*
X155020000Y-38650000D02*
X155020000Y-38210000D01*
X155020000Y-41160000D02*
X155020000Y-40750000D01*
X155930000Y-49790000D02*
X155930000Y-41160000D01*
X156840000Y-38650000D02*
X156840000Y-38210000D01*
X156840000Y-41160000D02*
X156840000Y-40750000D01*
X157560000Y-38650000D02*
X157560000Y-38210000D01*
X157560000Y-41160000D02*
X157560000Y-40750000D01*
X158470000Y-49790000D02*
X158470000Y-41160000D01*
X159380000Y-38650000D02*
X159380000Y-38210000D01*
X159380000Y-41160000D02*
X159380000Y-40750000D01*
X160100000Y-38650000D02*
X160100000Y-38210000D01*
X160100000Y-41160000D02*
X160100000Y-40750000D01*
X161010000Y-49790000D02*
X161010000Y-41160000D01*
X161920000Y-38650000D02*
X161920000Y-38210000D01*
X161920000Y-41160000D02*
X161920000Y-40750000D01*
X162640000Y-38650000D02*
X162640000Y-38210000D01*
X162640000Y-41160000D02*
X162640000Y-40750000D01*
X163610000Y-49790000D02*
X163610000Y-41160000D01*
%TD*%
D14*
%TO.C,J5*%
X93250000Y-69447440D03*
X93250000Y-79449960D03*
X103244900Y-81946780D03*
X103247440Y-74448700D03*
X103244900Y-66950620D03*
X105746800Y-79444880D03*
X105746800Y-69452520D03*
%TD*%
M02*
