M48
; DRILL file {KiCad 9.0.2} date 2025-12-11T17:12:16+0000
; FORMAT={-:-/ absolute / metric / decimal}
; #@! TF.CreationDate,2025-12-11T17:12:16+00:00
; #@! TF.GenerationSoftware,Kicad,Pcbnew,9.0.2
; #@! TF.FileFunction,Plated,1,2,PTH
FMAT,2
METRIC
; #@! TA.AperFunction,Plated,PTH,ViaDrill
T1C0.300
; #@! TA.AperFunction,Plated,PTH,ComponentDrill
T2C0.800
; #@! TA.AperFunction,Plated,PTH,ComponentDrill
T3C1.000
; #@! TA.AperFunction,Plated,PTH,ComponentDrill
T4C1.397
; #@! TA.AperFunction,Plated,PTH,ComponentDrill
T5C3.200
%
G90
G05
T1
X108.595Y-45.713
X114.141Y-58.492
X120.302Y-79.977
X127.978Y-58.032
T2
X113.4Y-82.95
X115.7Y-49.72
X115.7Y-59.88
X117.35Y-66.47
X117.35Y-76.63
X118.4Y-82.95
T3
X100.48Y-43.095
X100.48Y-45.865
X100.48Y-48.635
X100.48Y-51.405
X103.32Y-41.71
X103.32Y-44.48
X103.32Y-47.25
X103.32Y-50.02
X103.32Y-52.79
X122.55Y-32.98
X122.55Y-35.52
X122.55Y-38.06
X122.55Y-40.6
X122.55Y-43.14
X122.55Y-45.68
X122.55Y-48.22
X122.55Y-50.76
X122.55Y-53.3
X122.55Y-55.84
X122.55Y-58.38
X122.55Y-60.92
X122.55Y-63.46
X122.55Y-66.0
X122.55Y-68.54
X122.55Y-71.08
X122.55Y-73.62
X122.55Y-76.16
X122.55Y-78.7
X122.55Y-81.24
X142.85Y-32.94
X142.85Y-35.48
X142.85Y-38.02
X142.85Y-40.56
X142.85Y-43.1
X142.85Y-45.64
X142.85Y-48.18
X142.85Y-50.72
X142.85Y-53.26
X142.85Y-55.8
X142.85Y-58.34
X142.85Y-60.88
X142.85Y-63.42
X142.85Y-65.96
X142.85Y-68.5
X142.85Y-71.04
X142.85Y-73.58
X142.85Y-76.12
X142.85Y-78.66
X142.85Y-81.2
X149.58Y-37.16
X149.58Y-39.7
X152.12Y-37.16
X152.12Y-39.7
X154.66Y-37.16
X154.66Y-39.7
X157.2Y-37.16
X157.2Y-39.7
X159.74Y-37.16
X159.74Y-39.7
X162.28Y-37.16
X162.28Y-39.7
T4
X103.245Y-66.951
X103.245Y-81.947
X103.247Y-74.449
X105.747Y-69.453
X105.747Y-79.445
T5
X101.9Y-34.75
X101.9Y-59.75
M30
